<svg xmlns="http://www.w3.org/2000/svg" width="119" height="76" viewBox="0 0 119 76" fill="none">
  <path fill-rule="evenodd" clip-rule="evenodd" d="M39.0015 71.1833V73.0951C39.0015 74.5157 37.835 75.6821 36.4169 75.6821H24.8853C23.4648 75.6821 22.2983 74.5181 22.2983 73.0951V71.1833H11.9502C8.19186 71.1833 5.2394 70.1184 3.15332 68.0323C1.06966 65.9487 0 63.0011 0 59.2355V11.9502C0 8.18218 1.0624 5.23214 3.14848 3.14848C5.23214 1.0624 8.18218 0 11.9502 0H100.558C104.326 0 107.273 1.06966 109.357 3.15332C111.443 5.2394 112.508 8.19186 112.508 11.9502V33.975C110.572 33.1474 108.52 32.5351 106.385 32.1673V11.9502C106.385 9.87863 105.925 8.3782 105.028 7.48036C104.132 6.58495 102.634 6.12272 100.558 6.12272H11.9502C9.87137 6.12272 8.37094 6.58253 7.47552 7.47552C6.58253 8.37094 6.12272 9.87137 6.12272 11.9502V59.2355C6.12272 61.3119 6.58495 62.8075 7.48036 63.7029C8.3782 64.6007 9.87863 65.0605 11.9502 65.0605H74.6342C75.0844 67.2047 75.7813 69.2569 76.6937 71.1833H39.0015ZM62.5969 49.3617C61.6047 49.3617 62.5969 72.5094 62.5969 71.1833C62.5969 69.8571 61.6047 44.5579 62.5969 44.5579H78.3587C77.3979 46.068 76.58 47.6749 75.9217 49.3617H62.5969ZM62.5969 36.2281C61.6047 36.2281 60.7988 35.1512 60.7988 33.825C60.7988 32.4988 61.6047 31.4243 62.5969 31.4243H93.3751C94.0309 31.4243 94.6069 31.8938 94.9215 32.5932C91.9676 33.3361 89.1576 34.5645 86.6062 36.2281H62.5969ZM62.5969 23.0897C61.6047 23.0897 60.7988 22.0152 60.7988 20.689C60.7988 19.3628 61.6047 18.2883 62.5969 18.2883H93.9825C94.9771 18.2883 95.783 19.3628 95.783 20.689C95.783 22.0152 94.9771 23.0897 93.9825 23.0897H62.5969ZM33.9775 50.9178H12.7028C12.9739 49.8723 13.3514 48.8777 14.0169 47.9944C14.5929 47.2369 15.3044 46.6779 16.0957 46.235C18.5327 44.8749 24.9894 44.4538 27.4046 42.5347C27.77 41.7458 28.1403 40.6229 28.3726 39.9138C28.3847 39.8775 28.3533 39.9743 28.4718 39.621C28.5711 39.3233 28.4138 38.9192 28.15 38.4836C27.7023 37.7503 26.9496 36.9275 26.6133 36.3951L24.6361 33.249C23.9125 32.1697 23.535 31.1823 23.5132 30.374C23.5011 29.9916 23.5664 29.6456 23.7068 29.3455C23.8544 29.026 24.0819 28.7598 24.3868 28.5541C24.5296 28.4573 24.6893 28.375 24.866 28.3073C24.7377 26.6012 24.6893 24.4522 24.7716 22.6516C24.8152 22.2233 24.8974 21.7974 25.016 21.369C25.742 18.7796 27.9661 16.9161 30.5071 16.0376C31.7413 15.6117 31.2646 14.5953 32.5109 14.6655C32.9659 14.6897 33.4596 14.755 33.9775 14.8567C36.7581 15.8077 35.7925 15.4665 37.4454 16.0376C39.9864 16.9161 42.2129 18.7796 42.9365 21.369C43.055 21.7974 43.1373 22.2233 43.1809 22.6516C43.2632 24.4522 43.2148 26.6012 43.0865 28.3073C43.2632 28.375 43.4229 28.4573 43.5681 28.5541C43.8706 28.7598 44.0981 29.026 44.2457 29.3455C44.3861 29.6456 44.4514 29.9916 44.4417 30.374C44.4175 31.1823 44.04 32.1697 43.3188 33.249L41.3392 36.3951C41.0053 36.9275 40.2502 37.7503 39.8025 38.4836C39.5387 38.9192 39.3814 39.3233 39.4831 39.621C39.5992 39.9743 39.5678 39.8775 39.5799 39.9138C39.8146 40.6229 40.1849 41.7458 40.5479 42.5347C42.9655 44.4538 49.4198 44.8749 51.8568 46.235C52.6481 46.6779 53.362 47.2369 53.9356 47.9944C54.6035 48.8777 54.981 49.8723 55.2497 50.9178H33.9775Z" fill="#828282"></path>
  <path fill-rule="evenodd" clip-rule="evenodd" d="M100.5 76C105.407 76 110.112 74.0509 113.581 70.5815C117.051 67.1121 119 62.4065 119 57.5C119 52.5935 117.051 47.8879 113.581 44.4185C110.112 40.9491 105.407 39 100.5 39C95.5935 39 90.8879 40.9491 87.4185 44.4185C83.9491 47.8879 82 52.5935 82 57.5C82 62.4065 83.9491 67.1121 87.4185 70.5815C90.8879 74.0509 95.5935 76 100.5 76ZM102.812 48.25C102.812 47.6367 102.569 47.0485 102.135 46.6148C101.702 46.1811 101.113 45.9375 100.5 45.9375C99.8867 45.9375 99.2985 46.1811 98.8648 46.6148C98.4311 47.0485 98.1875 47.6367 98.1875 48.25V57.5C98.1876 58.1133 98.4314 58.7014 98.8651 59.1349L105.405 65.677C105.62 65.8919 105.875 66.0623 106.155 66.1786C106.436 66.2948 106.737 66.3547 107.041 66.3547C107.345 66.3547 107.646 66.2948 107.926 66.1786C108.207 66.0623 108.462 65.8919 108.677 65.677C108.892 65.4621 109.062 65.2071 109.179 64.9264C109.295 64.6456 109.355 64.3448 109.355 64.0409C109.355 63.7371 109.295 63.4362 109.179 63.1555C109.062 62.8747 108.892 62.6197 108.677 62.4048L102.812 56.5426V48.25Z" fill="#D8B91A"></path>
</svg>